#!OML:ASF F:\VICON\USERDATA\INSTALL\rory3\rory3.ASF
:FULLY-SPECIFIED
:DEGREES
545
root -1.31632 29.9605 -7.59659 3.05873 210.005 1.10405
lowerback 10.128 -0.438098 -3.85743
upperback 0.838528 -1.06814 0.318203
thorax -4.73244 -0.474763 2.65743
lowerneck -10.9565 1.99088 -5.7406
upperneck 24.1263 1.40308 6.63278
head 9.25182 0.478825 3.36141
rclavicle -2.01269e-014 8.74653e-015
rhumerus -36.853 3.74038 -75.6619
rradius 50.8107
rwrist 26.2153
rhand -23.7275 7.34903
rfingers 7.12502
rthumb 2.74054 -22.6131
lclavicle -2.01269e-014 8.74653e-015
lhumerus -25.2067 11.1039 80.9035
lradius 22.7385
lwrist -4.20781
lhand -21.7966 24.6907
lfingers 7.12502
lthumb 4.6052 54.6206
rfemur -20.7752 32.2866 11.7192
rtibia 28.024
rfoot -22.5081 0.882755
rtoes -10.9001
lfemur -8.51976 -9.31994 -22.0721
ltibia 20.2162
lfoot -16.1379 1.14694
ltoes 1.81625
546
root -1.2943 29.9577 -7.63098 3.03488 210.868 1.06429
lowerback 10.0655 -0.462983 -3.74842
upperback 0.873005 -1.0831 0.365663
thorax -4.66122 -0.485919 2.64598
lowerneck -11.0896 2.17826 -5.58385
upperneck 24.1211 1.76976 6.22377
head 9.25825 0.632055 3.23427
rclavicle 4.55217e-014 -5.1684e-015
rhumerus -36.9323 3.64686 -75.537
rradius 50.5092
rwrist 26.1773
rhand -23.7478 7.03715
rfingers 7.12502
rthumb 2.72095 -22.9252
lclavicle 4.55217e-014 -5.1684e-015
lhumerus -25.1952 11.3838 80.8425
lradius 22.8674
lwrist -4.1524
lhand -21.9493 24.1626
lfingers 7.12502
lthumb 4.45772 54.0957
rfemur -20.6111 32.4043 11.7232
rtibia 27.7974
rfoot -22.191 1.27954
rtoes -10.4561
lfemur -8.39603 -9.56322 -21.958
ltibia 20.0788
lfoot -15.8162 0.604488
ltoes 1.95249
547
root -1.27796 29.9515 -7.67471 3.15256 211.733 0.586817
lowerback 9.94079 -0.473642 -4.03389
upperback 0.926519 -1.12636 0.315371
thorax -4.52819 -0.506628 2.75712
lowerneck -11.1549 2.03424 -5.68821
upperneck 24.2337 1.57694 6.26599
head 9.3216 0.5365 3.25102
rclavicle -8.89561e-015 -8.34896e-015
rhumerus -36.8927 3.50768 -75.4255
rradius 49.9974
rwrist 26.2262
rhand -23.6584 7.06576
rfingers 7.12502
rthumb 2.80725 -22.8955
lclavicle -8.89561e-015 -8.34896e-015
lhumerus -25.3096 11.7795 80.7376
lradius 23.1419
lwrist -4.06365
lhand -21.9764 23.8482
lfingers 7.12502
lthumb 4.43151 53.7819
rfemur -20.2934 32.4807 11.4237
rtibia 27.6692
rfoot -21.936 1.60084
rtoes -9.30851
lfemur -8.06229 -9.66146 -22.2893
ltibia 19.7975
lfoot -15.2624 -0.127033
ltoes 2.76101
548
root -1.2658 29.9459 -7.71469 3.5163 212.536 -0.0685138
lowerback 9.74236 -0.472939 -4.34982
upperback 0.887087 -1.1568 0.164191
thorax -4.45348 -0.517379 2.77763
lowerneck -10.9363 2.01504 -5.67332
upperneck 24.0457 1.57084 6.20524
head 9.21624 0.533337 3.21854
rclavicle 5.50634e-014 3.97569e-016
rhumerus -36.8996 3.35134 -75.3483
rradius 49.5084
rwrist 26.3547
rhand -23.2924 7.09156
rfingers 7.12502
rthumb 3.16074 -22.8648
lclavicle 5.50634e-014 3.97569e-016
lhumerus -25.4595 12.0709 80.5703
lradius 23.3791
lwrist -3.90175
lhand -21.9393 23.9944
lfingers 7.12502
lthumb 4.46742 53.9272
rfemur -20.157 32.429 10.899
rtibia 27.6443
rfoot -21.7682 1.9597
rtoes -9.32713
lfemur -7.84193 -9.84348 -22.7601
ltibia 19.4064
lfoot -14.7643 -0.775076
ltoes 3.74704
549
root -1.25198 29.9366 -7.75029 4.01813 213.294 -0.74714
lowerback 9.50971 -0.449384 -4.65767
upperback 0.784749 -1.15394 -0.012449
thorax -4.42869 -0.509123 2.76259
lowerneck -10.7514 1.99692 -5.996
upperneck 23.8538 1.52564 6.60504
head 9.10744 0.530483 3.39988
rclavicle -4.72114e-014 3.83654e-014
rhumerus -36.9952 3.29006 -75.2865
rradius 49.111
rwrist 26.4594
rhand -22.8998 6.78288
rfingers 7.12502
rthumb 3.53983 -23.1675
lclavicle -4.72114e-014 3.83654e-014
lhumerus -25.5648 12.1648 80.4084
lradius 23.4806
lwrist -3.74897
lhand -22.025 24.3558
lfingers 7.12502
lthumb 4.38468 54.2904
rfemur -20.1933 32.3636 10.2852
rtibia 27.6334
rfoot -21.5221 2.28683
rtoes -9.73699
lfemur -7.75556 -10.1569 -23.2239
ltibia 19.0338
lfoot -14.4752 -1.20837
ltoes 4.08931
550
root -1.22873 29.9244 -7.7982 4.34265 214.011 -1.17181
lowerback 9.20469 -0.411906 -4.96205
upperback 0.730511 -1.1198 -0.0670464
thorax -4.31313 -0.487772 2.86726
lowerneck -10.3955 2.00406 -6.27717
upperneck 23.4518 1.54494 6.88836
head 8.8922 0.553105 3.53125
rclavicle -3.03147e-014 2.38542e-015
rhumerus -37.1379 3.32738 -75.2176
rradius 48.7983
rwrist 26.5005
rhand -22.8075 6.84221
rfingers 7.12502
rthumb 3.62903 -23.1066
lclavicle -3.03147e-014 2.38542e-015
lhumerus -25.7044 12.3172 80.2551
lradius 23.6842
lwrist -3.59505
lhand -22.1986 24.8838
lfingers 7.12502
lthumb 4.21696 54.8218
rfemur -20.1509 32.4915 9.99909
rtibia 27.5519
rfoot -21.1123 2.43315
rtoes -9.48999
lfemur -7.69209 -10.3145 -23.4006
ltibia 18.8435
lfoot -14.4117 -1.71222
ltoes 3.86062
551
root -1.19856 29.9131 -7.8554 4.5567 214.783 -1.47069
lowerback 8.93407 -0.364598 -5.24554
upperback 0.70705 -1.06795 -0.0688604
thorax -4.18575 -0.459016 3.01374
lowerneck -10.2641 2.02113 -6.42525
upperneck 23.2709 1.58063 7.03776
head 8.79856 0.579198 3.60485
rclavicle 1.2424e-014 -2.5842e-014
rhumerus -37.263 3.34979 -75.1932
rradius 48.401
rwrist 26.4533
rhand -22.7552 6.66864
rfingers 7.12502
rthumb 3.67954 -23.2793
lclavicle 1.2424e-014 -2.5842e-014
lhumerus -25.8495 11.9483 80.3825
lradius 24.1986
lwrist -2.35107
lhand -22.9664 25.8599
lfingers 7.12502
lthumb 3.47558 55.8113
rfemur -19.9452 32.6653 9.93655
rtibia 27.3724
rfoot -20.5923 2.42709
rtoes -8.7672
lfemur -7.73364 -10.4181 -23.4167
ltibia 18.8658
lfoot -14.5294 -2.21977
ltoes 2.58872
552
root -1.17254 29.9047 -7.90824 4.52799 215.599 -1.41067
lowerback 8.77527 -0.341254 -5.09087
upperback 0.677368 -1.00806 -0.0410794
thorax -4.13507 -0.431235 2.94588
lowerneck -10.422 2.04339 -6.4874
upperneck 23.4125 1.62484 7.07714
head 8.87202 0.601237 3.64085
rclavicle -7.43952e-014 -1.19271e-015
rhumerus -37.4962 3.18526 -75.1934
rradius 48.2057
rwrist 26.4819
rhand -22.2292 6.37645
rfingers 7.12502
rthumb 4.18748 -23.5621
lclavicle -7.43952e-014 -1.19271e-015
lhumerus -25.9855 12.0726 80.2306
lradius 24.4349
lwrist -2.15231
lhand -23.3972 25.886
lfingers 7.12502
lthumb 3.0595 55.8438
rfemur -19.568 32.7957 10.2635
rtibia 27.1064
rfoot -19.7648 2.33522
rtoes -6.80305
lfemur -7.82048 -10.5101 -23.1274
ltibia 19.0504
lfoot -14.5948 -2.7917
ltoes 1.69208
553
root -1.1554 29.8964 -7.95222 4.22694 216.565 -1.11379
lowerback 8.80469 -0.380462 -4.5571
upperback 0.640543 -1.00454 0.00389558
thorax -4.19787 -0.434881 2.69268
lowerneck -10.399 2.05853 -6.42422
upperneck 23.5255 1.62728 7.06321
head 8.90724 0.6036 3.62829
rclavicle 5.20816e-014 1.63003e-014
rhumerus -37.8268 2.95003 -75.1825
rradius 48.156
rwrist 26.5179
rhand -21.3366 6.30554
rfingers 7.12502
rthumb 5.04933 -23.6143
lclavicle 5.20816e-014 1.63003e-014
lhumerus -26.1194 12.2881 79.9591
lradius 24.4591
lwrist -2.1213
lhand -23.5145 25.7069
lfingers 7.12502
lthumb 2.9462 55.6663
rfemur -18.8858 32.4563 10.997
rtibia 26.8694
rfoot -18.8914 2.19205
rtoes -4.23108
lfemur -7.71523 -10.576 -22.6916
ltibia 19.2152
lfoot -14.6114 -3.52469
ltoes 1.07314
554
root -1.1449 29.8893 -7.98697 4.10555 217.439 -1.05961
lowerback 8.80322 -0.421545 -4.07217
upperback 0.59048 -1.01175 -0.0434364
thorax -4.25732 -0.444472 2.37169
lowerneck -10.2518 2.07312 -6.41113
upperneck 23.4527 1.6625 6.99736
head 8.85319 0.616031 3.60225
rclavicle 1.48343e-014 3.12092e-014
rhumerus -38.0328 2.81189 -75.241
rradius 47.9358
rwrist 26.6935
rhand -20.9071 6.35692
rfingers 7.12502
rthumb 5.46405 -23.5526
lclavicle 1.48343e-014 3.12092e-014
lhumerus -26.2758 12.3604 79.7478
lradius 24.6426
lwrist -1.66087
lhand -23.4858 26.0027
lfingers 7.12502
lthumb 2.97396 55.9617
rfemur -18.3067 32.0121 11.4361
rtibia 26.7244
rfoot -18.2634 1.99403
rtoes -1.58227
lfemur -7.60711 -10.6253 -22.5053
ltibia 19.2894
lfoot -14.6064 -4.2893
ltoes 1.26227
555
root -1.13024 29.8896 -8.02285 4.40817 218.181 -1.52723
lowerback 8.66449 -0.407725 -4.08526
upperback 0.567358 -0.993416 -0.16192
thorax -4.20695 -0.436756 2.2514
lowerneck -10.3564 2.07157 -6.66797
upperneck 23.4395 1.73494 7.00958
head 8.85968 0.637099 3.66001
rclavicle 7.30037e-014 1.17283e-014
rhumerus -38.1005 2.76836 -75.3011
rradius 47.6366
rwrist 26.7977
rhand -20.8275 6.4049
rfingers 7.12502
rthumb 5.54087 -23.5027
lclavicle 7.30037e-014 1.17283e-014
lhumerus -26.3644 12.5387 79.5838
lradius 24.8969
lwrist -1.11289
lhand -23.4752 25.9598
lfingers 7.12502
lthumb 2.98419 55.9187
rfemur -18.0076 31.7933 11.3048
rtibia 26.7004
rfoot -17.9285 1.32959
rtoes -0.380871
lfemur -7.58331 -10.7203 -22.7416
ltibia 19.2424
lfoot -14.5502 -4.89061
ltoes 1.33585
